# Blender v2.93.6 OBJ File: 'Route 202.blend'
# www.blender.org
mtllib ground.mtl
o Background_Plane
v -10.189658 1.865939 17.893162
v 9.034717 1.865939 17.893162
v -10.189657 1.865939 11.673898
v 9.034717 1.865939 9.503721
v -4.636077 1.865939 17.893162
v -4.636077 1.865939 11.673899
v -10.189658 2.115939 2.826698
v -4.636077 2.115939 2.826698
v -10.189658 2.122722 9.322563
v -4.636077 2.122722 9.322563
v 9.053647 2.119330 6.074631
v 9.053647 2.122722 9.322563
v -10.189658 1.865939 2.828343
v 9.034717 1.865939 2.828343
v -4.636077 1.864206 9.322563
v -4.636077 2.087037 -6.714547
v -10.189658 2.087037 -6.714543
v 9.053647 2.087037 -6.929857
v -4.636077 1.837037 -6.712904
v -10.189658 1.837037 -6.712900
v 9.034717 1.837037 -6.712900
v -4.636077 2.547673 2.823858
v -10.189658 2.547673 2.823858
v 9.053647 2.547673 2.823858
v -4.636077 2.518771 -6.717386
v -10.189658 2.518771 -6.717382
v 9.053647 2.518771 -6.932697
v 3.158645 2.119331 6.074631
v 3.158645 2.122722 9.322563
v 3.148329 1.865293 9.436218
v 3.158644 2.087037 -6.714547
v 3.148329 1.837037 -6.712904
v 3.158644 2.547673 2.823858
v 3.158644 2.518771 -6.717386
v -0.749349 2.115939 2.826698
v -0.749349 2.087037 -6.714547
v -0.754493 1.837037 -6.712904
v -0.749349 2.547673 2.823858
v -0.749349 2.518771 -6.717386
v -0.749349 2.122722 9.322563
v -0.754492 1.864748 9.379236
v 2.989538 2.115939 2.826698
v 2.989538 2.087037 -6.714547
v 2.979447 1.837037 -6.712904
v 2.989538 2.547673 2.823858
v 2.989538 2.518771 -6.717386
v -0.749349 2.067276 -10.668577
v -4.636077 2.067276 -10.668577
v -0.754493 1.817276 -10.666935
v -4.636077 1.817276 -10.666935
v -0.749349 2.749010 -10.671417
v -4.636077 2.749010 -10.671417
v -10.177422 1.294416 11.677039
v -10.177423 1.294416 17.896305
v -4.625450 1.294416 17.896305
v 9.046953 1.294416 17.896305
v 9.046953 1.294416 9.506864
v -4.625450 1.294416 11.677041
v -4.625450 1.294416 2.831485
v -10.177423 1.294416 2.831485
v -0.743866 1.294416 2.831485
v 9.046953 1.294416 2.831485
v -4.625450 1.292683 9.325706
v -4.625450 1.265514 -6.709762
v -10.177423 1.265514 -6.709758
v -0.743866 1.265514 -6.709762
v 9.046953 1.265514 -6.709758
v 3.158956 1.294416 2.831485
v 3.158956 1.265514 -6.709762
v 2.990073 1.294416 2.831485
v 2.990073 1.265514 -6.709762
v -0.743866 1.245753 -10.663792
v -4.625450 1.245753 -10.663792
v -4.625450 1.223230 -14.825602
v -0.749349 2.726486 -14.833225
v -4.636077 2.726486 -14.833225
v -0.743866 1.223230 -14.825602
v -7.336871 1.817138 -10.666922
v -7.326243 1.245473 -10.663767
v 1.154196 1.223230 -16.993357
v 1.956927 1.246032 -10.663816
v -6.521867 1.222837 -16.993841
v -7.336873 2.067276 -10.668577
v -7.336872 2.749010 -10.671417
v 1.951445 2.067123 -10.668564
v 1.946303 1.817257 -10.666933
v 1.951446 2.749010 -10.671417
v -6.546343 1.794438 -16.992857
v 1.160701 2.044451 -16.994566
v -6.545646 2.044562 -16.994711
v 1.154451 1.794531 -16.993254
v 1.172868 2.726340 -16.993731
v -6.558294 2.726340 -16.993731
vt 0.340968 0.498391
vt 0.614336 0.481182
vt 0.614426 0.497562
vt 0.796309 0.497562
vt 0.627906 0.481182
vt 0.627601 0.497562
vt 0.245326 0.154839
vt 0.404495 0.341015
vt 0.245326 0.341015
vt 0.404495 0.087448
vt 0.245326 0.087448
vt 0.627897 0.247927
vt 0.796852 0.154839
vt 0.796852 0.247927
vt 0.245676 0.482011
vt 0.404495 0.498391
vt 0.245326 0.498391
vt 0.614426 0.497562
vt 0.727661 0.480616
vt 0.614336 0.481182
vt 0.404495 0.505750
vt 0.515744 0.498357
vt 0.515891 0.505750
vt 0.247927 0.505653
vt 0.149647 0.498391
vt 0.404495 0.504728
vt 0.245326 0.517101
vt 0.404495 0.517101
vt 0.087448 0.498391
vt 0.340878 0.482011
vt 0.087358 0.482011
vt 0.154839 0.505750
vt 0.340968 0.498391
vt 0.627897 0.504728
vt 0.245326 0.497562
vt 0.245326 0.504728
vt 0.341015 0.505556
vt 0.614426 0.497562
vt 0.623066 0.481182
vt 0.622761 0.497562
vt 0.620644 0.504728
vt 0.341096 0.517930
vt 0.404495 0.341096
vt 0.245326 0.614555
vt 0.245326 0.341096
vt 0.796852 0.341096
vt 0.627897 0.614555
vt 0.627897 0.341096
vt 0.614473 0.504728
vt 0.341096 0.517930
vt 0.614555 0.517101
vt 0.404495 0.505556
vt 0.245326 0.517930
vt 0.245326 0.505556
vt 0.614474 0.504728
vt 0.727752 0.496996
vt 0.727799 0.504161
vt 0.341015 0.505556
vt 0.341096 0.517930
vt 0.341096 0.517930
vt 0.796852 0.504728
vt 0.627897 0.517101
vt 0.796852 0.517101
vt 0.623050 0.614555
vt 0.623050 0.341096
vt 0.623050 0.504728
vt 0.340878 0.482011
vt 0.627897 0.505750
vt 0.796309 0.498391
vt 0.796852 0.505750
vt 0.515891 0.154839
vt 0.627897 0.154839
vt 0.404495 0.154839
vt 0.515891 0.341015
vt 0.614474 0.504728
vt 0.727752 0.496996
vt 0.515891 0.341096
vt 0.404495 0.614555
vt 0.515891 0.505556
vt 0.404495 0.517930
vt 0.515891 0.504728
vt 0.623050 0.517101
vt -0.090800 0.498391
vt 0.149557 0.482011
vt 0.627601 0.498372
vt 0.516048 0.481182
vt 0.515744 0.497562
vt 0.515891 0.614555
vt 0.623050 0.505556
vt 0.515891 0.517930
vt 0.515891 0.727880
vt 0.404495 0.847160
vt 0.404495 0.727880
vt 0.327089 0.727880
vt 0.404800 0.482011
vt 0.796309 0.498391
vt 0.614555 0.517101
vt 0.727799 0.504161
vt 0.614555 0.517101
vt 0.727880 0.523700
vt 0.404800 0.087358
vt 0.796660 -0.090890
vt 0.404800 -0.090890
vt 0.245676 -0.090890
vt 0.404800 0.154749
vt 0.516048 0.340878
vt 0.623066 0.340878
vt 0.245676 0.340878
vt 0.245676 0.087358
vt 0.404800 0.340878
vt 0.516048 0.614336
vt 0.404800 0.614336
vt 0.627906 0.340878
vt 0.796660 0.614336
vt 0.796660 0.340878
vt 0.623066 0.614336
vt 0.627906 0.614336
vt 0.516048 0.727661
vt 0.614426 0.497562
vt 0.727661 0.480616
vt 0.404800 0.727661
vt 0.516048 0.846942
vt 0.154839 0.505750
vt 0.087448 0.498391
vt 0.154839 0.498341
vt 0.404495 0.497562
vt 0.245676 0.481182
vt -0.090800 0.498391
vt 0.614336 0.481182
vt 0.404495 -0.090800
vt 0.245326 -0.090800
vt 0.627601 0.151582
vt 0.515744 0.153215
vt 0.404495 0.496996
vt 0.327089 0.504161
vt 0.327089 0.496992
vt 0.515891 0.504161
vt 0.593151 0.496996
vt 0.593298 0.504157
vt 0.515891 0.847160
vt 0.593298 0.727880
vt 0.570983 0.909082
vt 0.404800 0.846942
vt 0.327393 0.727661
vt 0.350447 0.909085
vt 0.404495 0.504161
vt 0.327089 0.523700
vt 0.570448 0.909071
vt 0.349403 0.909082
vt 0.593455 0.727662
vt 0.727752 0.496996
vt 0.909106 0.503507
vt 0.727798 0.504157
vt 0.349766 0.503510
vt 0.570983 0.523050
vt 0.570635 0.503507
vt 0.570456 0.496344
vt 0.349746 0.496342
vt 0.350447 0.479959
vt 0.727661 0.480608
vt 0.909057 0.496342
vt 0.909085 0.479959
vt 0.909082 0.523050
vt 0.727880 0.523700
vt 0.727799 0.504161
vt 0.909082 0.523050
vt 0.909110 0.503510
vt 0.727751 0.496992
vt 0.909071 0.479970
vt 0.909068 0.496344
vt 0.327393 0.480608
vt 0.404800 0.480616
vt 0.593298 0.523700
vt 0.515891 0.523700
vt 0.516048 0.480616
vt 0.515744 0.496996
vt 0.796660 0.481182
vt 0.404495 0.498341
vt 0.154839 0.505750
vt 0.620726 0.517101
vt 0.796852 0.620726
vt 0.247927 0.505653
vt 0.623050 0.341015
vt 0.515891 0.517101
vt -0.090890 0.482011
vt 0.623050 0.517930
vt 0.796660 0.482011
vt 0.727880 0.523700
vt 0.796660 0.149557
vt 0.245676 0.614336
vt 0.614336 0.481182
vt 0.404800 0.481182
vt -0.090890 0.482011
vt 0.796309 -0.090800
vt 0.796309 0.149647
vt 0.404495 0.154839
vt 0.404495 0.523700
vt 0.349403 0.523050
vt 0.570448 0.479970
vt 0.727880 0.523700
vt 0.727662 0.480624
vt 0.593455 0.480624
vn 0.9998 0.0214 -0.0001
vn 0.0000 -0.0055 -1.0000
vn 0.0000 1.0000 -0.0010
vn -0.0000 0.9941 0.1086
vn 0.0000 0.0055 1.0000
vn -0.9998 -0.0186 0.0001
vn 0.0000 0.2146 0.9767
vn 0.9972 -0.0745 0.0000
vn -0.0000 -0.0066 -1.0000
vn -0.9998 -0.0214 0.0000
vn -1.0000 -0.0000 0.0000
vn 0.9970 -0.0769 0.0002
vn 1.0000 0.0000 0.0000
vn 0.0000 1.0000 -0.0030
vn 0.0000 0.0066 1.0000
vn 0.9998 -0.0206 0.0001
vn 0.0000 0.9914 0.1306
vn -0.0365 -0.0066 -0.9993
vn 0.9998 0.0214 0.0000
vn 0.0000 0.5765 0.8171
vn 0.0000 0.4039 0.9148
vn 0.0000 1.0000 -0.0054
vn 0.0000 0.9983 0.0581
vn 0.0000 -1.0000 0.0000
vn 0.0000 -1.0000 -0.0003
vn -0.0003 -1.0000 0.0000
vn 0.0000 -1.0000 0.0030
vn 0.0000 -1.0000 0.0050
vn 0.9998 0.0186 -0.0001
vn 0.0000 -1.0000 0.0054
vn -0.9998 -0.0214 0.0001
vn 0.0000 1.0000 0.0000
vn -0.0001 1.0000 -0.0002
vn -0.0000 0.0065 1.0000
vn -0.0035 1.0000 -0.0032
vn -0.0034 -1.0000 0.0031
vn 0.0000 0.0042 1.0000
vn 0.0001 -1.0000 0.0000
vn 0.0000 1.0000 -0.0001
vn 0.0001 -1.0000 0.0054
vn 0.9921 -0.0212 -0.1239
vn 0.0000 0.0012 -1.0000
vn -0.0001 -0.0074 -1.0000
vn -0.0001 0.0017 -1.0000
vn -0.9912 -0.0422 -0.1258
vn 0.9925 -0.0005 -0.1222
vn -0.9921 -0.0182 -0.1240
vn -0.9923 -0.0008 -0.1240
vn 0.9923 -0.0004 -0.1242
vn -0.0146 0.0000 0.9999
vn 0.9973 -0.0735 0.0001
vn -0.0276 -0.6540 -0.7560
vn 0.9972 -0.0753 0.0002
vn -0.0001 1.0000 -0.0030
vn -0.9299 0.3646 0.0480
vn -0.0105 0.4042 0.9146
vn -0.0143 0.2148 0.9765
vn 0.0035 1.0000 -0.0032
vn 0.0001 -1.0000 0.0007
vn 0.0001 -1.0000 -0.0001
vn -0.0000 -1.0000 0.0007
vn -0.0001 1.0000 0.0000
vn -0.0001 1.0000 -0.0007
vn 0.0003 1.0000 0.0000
vn 0.0000 -1.0000 0.0002
vn 0.0036 -1.0000 0.0031
vn 0.9919 -0.0255 -0.1241
vn 0.0000 0.0014 -1.0000
vn 0.0000 -0.0053 -1.0000
vn 0.0001 0.0002 -1.0000
vn -0.9921 -0.0191 -0.1239
vn 0.9921 -0.0176 -0.1240
vn -0.9925 -0.0005 -0.1222
vn -0.9923 0.0018 -0.1241
vn 0.9919 0.0178 -0.1259
usemtl Ground
s off
f 14/1/1 67/2/1 21/3/1
f 21/4/2 69/5/2 32/6/2
f 9/7/3 8/8/3 7/9/3
f 6/10/4 9/7/4 3/11/4
f 28/12/3 12/13/3 11/14/3
f 54/15/5 5/16/5 1/17/5
f 19/18/6 73/19/6 64/20/6
f 10/21/7 41/22/7 40/23/7
f 11/24/8 4/25/8 14/1/8
f 16/26/9 26/27/9 25/28/9
f 3/29/10 60/30/10 53/31/10
f 9/32/11 13/33/11 3/29/11
f 31/34/9 21/4/9 32/6/9
f 16/26/9 20/35/9 17/36/9
f 7/37/11 20/38/11 13/33/11
f 32/6/2 71/39/2 44/40/2
f 14/1/12 18/41/12 11/24/12
f 18/41/13 24/42/13 11/24/13
f 22/43/14 26/44/14 23/45/14
f 24/46/14 34/47/14 33/48/14
f 17/49/11 23/50/11 26/51/11
f 8/52/15 23/53/15 7/54/15
f 36/55/16 49/56/16 47/57/16
f 28/12/17 24/46/17 33/48/17
f 42/58/15 33/59/15 45/60/15
f 18/61/18 34/62/18 27/63/18
f 33/48/14 46/64/14 45/65/14
f 43/66/9 32/6/9 44/40/9
f 4/25/19 62/67/19 14/1/19
f 29/68/20 4/69/20 12/70/20
f 40/71/3 29/72/3 28/12/3
f 10/73/3 35/74/3 8/8/3
f 16/75/11 50/76/11 19/18/11
f 38/77/14 25/78/14 22/43/14
f 35/79/15 22/80/15 8/52/15
f 36/81/9 46/82/9 43/66/9
f 2/83/19 57/84/19 4/25/19
f 40/23/21 30/85/21 29/68/21
f 44/40/2 66/86/2 37/87/2
f 43/66/9 34/62/9 31/34/9
f 36/81/9 44/40/9 37/87/9
f 45/65/14 39/88/14 38/77/14
f 42/89/15 38/90/15 35/79/15
f 51/91/22 76/92/22 52/93/22
f 76/92/22 84/94/22 52/93/22
f 55/95/5 2/96/5 5/16/5
f 25/97/11 48/98/11 16/75/11
f 39/99/13 47/57/13 51/100/13
f 39/88/23 52/93/23 25/78/23
f 58/101/24 56/102/24 55/103/24
f 54/104/24 58/101/24 55/103/24
f 63/105/25 61/106/25 70/107/25
f 60/108/26 63/105/26 53/109/26
f 59/110/27 66/111/27 61/106/27
f 60/108/27 64/112/27 59/110/27
f 68/113/27 67/114/27 62/115/27
f 61/106/27 71/116/27 70/107/27
f 70/107/27 69/117/27 68/113/27
f 64/112/28 72/118/28 66/111/28
f 37/119/29 72/120/29 49/56/29
f 73/121/30 77/122/30 72/118/30
f 10/123/13 6/124/13 15/125/13
f 19/126/2 65/127/2 20/35/2
f 53/31/10 1/128/10 3/29/10
f 13/33/31 65/129/31 60/30/31
f 5/130/32 3/11/32 1/131/32
f 5/130/33 30/132/33 41/133/33
f 50/134/15 83/135/15 78/136/15
f 47/137/34 86/138/34 85/139/34
f 75/140/35 87/141/35 92/142/35
f 74/143/36 79/144/36 82/145/36
f 48/146/37 84/147/37 83/135/37
f 77/122/38 82/145/38 80/148/38
f 75/140/39 93/149/39 76/92/39
f 77/122/40 81/150/40 72/118/40
f 86/151/41 89/152/41 85/153/41
f 90/154/42 92/155/42 89/156/42
f 90/154/43 91/157/43 88/158/43
f 91/157/44 82/159/44 88/158/44
f 79/160/45 88/161/45 82/162/45
f 85/153/46 92/163/46 87/164/46
f 83/165/47 93/166/47 90/167/47
f 83/165/48 88/161/48 78/168/48
f 86/151/49 80/169/49 91/170/49
f 50/134/5 79/171/5 73/172/5
f 47/137/37 87/173/37 51/174/37
f 72/175/5 86/138/5 49/176/5
f 14/1/1 62/67/1 67/2/1
f 21/4/2 67/177/2 69/5/2
f 9/7/3 10/73/3 8/8/3
f 6/10/4 10/73/4 9/7/4
f 28/12/3 29/72/3 12/13/3
f 54/15/5 55/95/5 5/16/5
f 19/18/6 50/76/6 73/19/6
f 10/21/50 15/178/50 41/22/50
f 11/24/51 12/179/51 4/25/51
f 16/26/9 17/36/9 26/27/9
f 3/29/10 13/33/10 60/30/10
f 9/32/11 7/37/11 13/33/11
f 31/34/52 18/61/52 21/4/52
f 16/26/9 19/126/9 20/35/9
f 7/37/11 17/49/11 20/38/11
f 32/6/2 69/5/2 71/39/2
f 14/1/53 21/3/53 18/41/53
f 18/41/13 27/180/13 24/42/13
f 22/43/14 25/78/14 26/44/14
f 24/46/54 27/181/54 34/47/54
f 17/49/11 7/37/11 23/50/11
f 8/52/15 22/80/15 23/53/15
f 36/55/16 37/119/16 49/56/16
f 28/12/17 11/14/17 24/46/17
f 42/58/55 28/182/55 33/59/55
f 18/61/18 31/34/18 34/62/18
f 33/48/14 34/47/14 46/64/14
f 43/66/9 31/34/9 32/6/9
f 4/25/19 57/84/19 62/67/19
f 29/68/56 30/85/56 4/69/56
f 42/183/3 35/74/3 28/12/3
f 35/74/3 40/71/3 28/12/3
f 10/73/3 40/71/3 35/74/3
f 16/75/11 48/98/11 50/76/11
f 38/77/14 39/88/14 25/78/14
f 35/79/15 38/90/15 22/80/15
f 36/81/9 39/184/9 46/82/9
f 2/83/19 56/185/19 57/84/19
f 40/23/57 41/22/57 30/85/57
f 44/40/2 71/39/2 66/86/2
f 43/66/9 46/82/9 34/62/9
f 36/81/9 43/66/9 44/40/9
f 45/65/14 46/64/14 39/88/14
f 42/89/15 45/186/15 38/90/15
f 51/91/22 75/140/22 76/92/22
f 76/92/58 93/149/58 84/94/58
f 55/95/5 56/187/5 2/96/5
f 25/97/11 52/188/11 48/98/11
f 39/99/13 36/55/13 47/57/13
f 39/88/23 51/91/23 52/93/23
f 58/101/24 57/189/24 56/102/24
f 54/104/24 53/109/24 58/101/24
f 57/189/59 58/101/59 63/105/59
f 63/105/25 59/110/25 61/106/25
f 70/107/24 68/113/24 57/189/24
f 68/113/24 62/115/24 57/189/24
f 70/107/60 57/189/60 63/105/60
f 59/110/25 63/105/25 60/108/25
f 63/105/61 58/101/61 53/109/61
f 59/110/27 64/112/27 66/111/27
f 60/108/27 65/190/27 64/112/27
f 68/113/27 69/117/27 67/114/27
f 61/106/27 66/111/27 71/116/27
f 70/107/27 71/116/27 69/117/27
f 64/112/28 73/121/28 72/118/28
f 37/119/29 66/191/29 72/120/29
f 73/121/30 74/143/30 77/122/30
f 19/126/2 64/192/2 65/127/2
f 53/31/10 54/193/10 1/128/10
f 13/33/31 20/38/31 65/129/31
f 5/130/32 6/10/32 3/11/32
f 5/130/39 2/194/39 30/132/39
f 2/194/62 4/195/62 30/132/62
f 41/133/63 15/196/63 6/10/63
f 6/10/64 5/130/64 41/133/64
f 50/134/15 48/146/15 83/135/15
f 47/137/15 49/176/15 86/138/15
f 75/140/22 51/91/22 87/141/22
f 74/143/40 73/121/40 79/144/40
f 48/146/37 52/197/37 84/147/37
f 77/122/65 74/143/65 82/145/65
f 75/140/39 92/142/39 93/149/39
f 77/122/66 80/148/66 81/150/66
f 86/151/67 91/170/67 89/152/67
f 90/154/68 93/198/68 92/155/68
f 90/154/69 89/156/69 91/157/69
f 91/157/70 80/199/70 82/159/70
f 79/160/71 78/168/71 88/161/71
f 85/153/72 89/152/72 92/163/72
f 83/165/73 84/200/73 93/166/73
f 83/165/74 90/167/74 88/161/74
f 86/151/75 81/201/75 80/169/75
f 50/134/5 78/136/5 79/171/5
f 47/137/37 85/139/37 87/173/37
f 72/175/5 81/202/5 86/138/5
