# Blender v2.93.6 OBJ File: 'Route 202.blend'
# www.blender.org
mtllib sky.mtl
o Cube_Cube.018
v -18.270712 -0.077801 18.646816
v -18.270712 14.812680 18.646816
v -18.270712 -0.077801 -17.894608
v -18.270712 14.812680 -17.894608
v 18.270712 -0.077801 18.646816
v 18.270712 14.812680 18.646816
v 18.270712 -0.077801 -17.894608
v 18.270712 14.812680 -17.894608
vt 0.998175 0.564458
vt 0.749088 0.436642
vt 0.998175 0.436642
vt 0.749088 0.564458
vt 0.467970 0.436642
vt 0.467970 0.564458
vt 0.282943 0.436642
vt 0.282943 0.564458
vt 0.001825 0.436642
vt 0.282943 -0.000411
vt 0.467970 -0.000411
vt 0.467970 1.000411
vt 0.001825 0.564458
vt 0.282943 1.000411
vn -1.0000 0.0000 0.0000
vn 0.0000 0.0000 -1.0000
vn 1.0000 0.0000 0.0000
vn 0.0000 0.0000 1.0000
vn 0.0000 -1.0000 0.0000
vn 0.0000 1.0000 0.0000
usemtl Material.001
s off
f 2/1/1 3/2/1 1/3/1
f 4/4/2 7/5/2 3/2/2
f 8/6/3 5/7/3 7/5/3
f 6/8/4 1/9/4 5/7/4
f 7/5/5 1/10/5 3/11/5
f 4/12/6 6/8/6 8/6/6
f 2/1/1 4/4/1 3/2/1
f 4/4/2 8/6/2 7/5/2
f 8/6/3 6/8/3 5/7/3
f 6/8/4 2/13/4 1/9/4
f 7/5/5 5/7/5 1/10/5
f 4/12/6 2/14/6 6/8/6
